<mxfile host="app.diagrams.net" modified="2023-11-28T13:47:28.289Z" agent="Mozilla/5.0 (Macintosh; Intel Mac OS X 10.15; rv:120.0) Gecko/20100101 Firefox/120.0" etag="7BoKmzIDuq1kezzly5Wq" version="22.1.4" type="github">
  <diagram name="Page-1" id="ryP2rwXHpjwh8rxqgDW8">
    <mxGraphModel dx="954" dy="617" grid="1" gridSize="10" guides="1" tooltips="1" connect="1" arrows="1" fold="1" page="1" pageScale="1" pageWidth="850" pageHeight="1100" math="0" shadow="0">
      <root>
        <mxCell id="0" />
        <mxCell id="1" parent="0" />
        <mxCell id="IZVV2hbWvIyver_PEZVK-5" value="" style="edgeStyle=orthogonalEdgeStyle;rounded=0;orthogonalLoop=1;jettySize=auto;html=1;" edge="1" parent="1" source="IZVV2hbWvIyver_PEZVK-1" target="IZVV2hbWvIyver_PEZVK-4">
          <mxGeometry relative="1" as="geometry" />
        </mxCell>
        <mxCell id="IZVV2hbWvIyver_PEZVK-1" value="Form 1. Customer Visit" style="rounded=0;whiteSpace=wrap;html=1;" vertex="1" parent="1">
          <mxGeometry x="50" y="90" width="120" height="60" as="geometry" />
        </mxCell>
        <mxCell id="IZVV2hbWvIyver_PEZVK-6" style="edgeStyle=orthogonalEdgeStyle;rounded=0;orthogonalLoop=1;jettySize=auto;html=1;entryX=0;entryY=0.5;entryDx=0;entryDy=0;" edge="1" parent="1" source="IZVV2hbWvIyver_PEZVK-2" target="IZVV2hbWvIyver_PEZVK-4">
          <mxGeometry relative="1" as="geometry">
            <mxPoint x="240" y="320" as="targetPoint" />
          </mxGeometry>
        </mxCell>
        <mxCell id="IZVV2hbWvIyver_PEZVK-2" value="Form 2. Rendabiliteitsstudie" style="rounded=0;whiteSpace=wrap;html=1;" vertex="1" parent="1">
          <mxGeometry x="50" y="270" width="120" height="60" as="geometry" />
        </mxCell>
        <mxCell id="IZVV2hbWvIyver_PEZVK-4" value="Push variables to Excel" style="rounded=0;whiteSpace=wrap;html=1;" vertex="1" parent="1">
          <mxGeometry x="260" y="180" width="120" height="60" as="geometry" />
        </mxCell>
        <mxCell id="IZVV2hbWvIyver_PEZVK-7" value="&lt;div align=&quot;left&quot;&gt;&lt;ul&gt;&lt;li&gt;Checklist en pictures&lt;/li&gt;&lt;li&gt;Cfr Voltar&lt;br&gt;&lt;/li&gt;&lt;/ul&gt;&lt;/div&gt;" style="text;html=1;strokeColor=none;fillColor=none;align=left;verticalAlign=middle;whiteSpace=wrap;rounded=0;" vertex="1" parent="1">
          <mxGeometry x="30" y="155" width="170" height="30" as="geometry" />
        </mxCell>
        <mxCell id="IZVV2hbWvIyver_PEZVK-8" value="&lt;div align=&quot;left&quot;&gt;&lt;ul&gt;&lt;li&gt;Checklist en pictures&lt;/li&gt;&lt;li&gt;Cfr Voltar&lt;br&gt;&lt;/li&gt;&lt;/ul&gt;&lt;/div&gt;" style="text;html=1;strokeColor=none;fillColor=none;align=left;verticalAlign=middle;whiteSpace=wrap;rounded=0;" vertex="1" parent="1">
          <mxGeometry x="25" y="340" width="170" height="30" as="geometry" />
        </mxCell>
      </root>
    </mxGraphModel>
  </diagram>
</mxfile>
